PathFileType	4	(X/Y/Z)	C:\Users\Biomechanik\SynologyDrive\AlexP\Athlete_03\Athlete_3_25_03_31\Walking_03\marker_experimental.trc
DataRate	CameraRate	NumFrames	NumMarkers	Units	OrigDataRate	OrigDataStartFrame	OrigNumFrames
200.000000	200.000000	4	53	mm	200.000000	92	246
Frame#	Time	GLAB			RFHD			LFHD			C7			T6			SPINMOL			SPINM2			SPINM3			T12			BELTOL			BELT2			BELT3			SACROL			SACR2			SACR3			LTHOL			LTH2			LTH3			LSHAOL			LSHA2			LSHA3			LHEE			LTOE			LM5			RTHOL			RTH2			RTH3			RSHAOL			RSHA2			RSHA3			RHEE			RTOE			RM5			STRN			XIPH			LACR			LUAOL			LUA2			LUA3			LLAOL			LLA2			LLA3			LWRR			LWRU			RACR			RUAOL			RUA2			RUA3			RLAOL			RLA2			RLA3			RWRR			RWRU			
		X1	Y1	Z1	X2	Y2	Z2	X3	Y3	Z3	X4	Y4	Z4	X5	Y5	Z5	X6	Y6	Z6	X7	Y7	Z7	X8	Y8	Z8	X9	Y9	Z9	X10	Y10	Z10	X11	Y11	Z11	X12	Y12	Z12	X13	Y13	Z13	X14	Y14	Z14	X15	Y15	Z15	X16	Y16	Z16	X17	Y17	Z17	X18	Y18	Z18	X19	Y19	Z19	X20	Y20	Z20	X21	Y21	Z21	X22	Y22	Z22	X23	Y23	Z23	X24	Y24	Z24	X25	Y25	Z25	X26	Y26	Z26	X27	Y27	Z27	X28	Y28	Z28	X29	Y29	Z29	X30	Y30	Z30	X31	Y31	Z31	X32	Y32	Z32	X33	Y33	Z33	X34	Y34	Z34	X35	Y35	Z35	X36	Y36	Z36	X37	Y37	Z37	X38	Y38	Z38	X39	Y39	Z39	X40	Y40	Z40	X41	Y41	Z41	X42	Y42	Z42	X43	Y43	Z43	X44	Y44	Z44	X45	Y45	Z45	X46	Y46	Z46	X47	Y47	Z47	X48	Y48	Z48	X49	Y49	Z49	X50	Y50	Z50	X51	Y51	Z51	X52	Y52	Z52	X53	Y53	Z53	

93	0.46	119.8707962036131	1593.668579101562	237.6718139648438	69.98181915283187	1621.296752929688	301.5378112792969	76.78450775146472	1614.86279296875	163.7318115234375	-108.8046112060548	1435.9248046875	233.5651550292968	-170.7905883789064	1268.182373046875	232.7023010253906	-179.1373901367189	1227.490600585938	212.1174011230468	-185.3693847656251	1221.2958984375	262.2196960449218	-176.4663696289064	1163.877685546875	229.3522033691406	-153.7689666748048	1097.14501953125	230.9350128173828	-189.4192657470704	1061.947875976562	210.9031372070312	-192.6187896728517	1061.047607421875	262.0470275878906	-195.4295349121095	999.998046875	232.7805023193359	-175.3606109619141	949.3401489257812	205.6339416503906	-179.2285461425782	948.4931640625	257.5469360351562	-191.8449096679688	889.3098754882812	229.300796508789	30.98905181884761	673.8865966796875	37.46115875244141	13.53621196746821	600.9244384765625	60.19672012329102	58.04057312011714	619.1107788085938	47.66549301147462	104.4242248535156	346.3118591308594	40.96316146850588	63.47354888916013	281.3079223632812	60.62925720214845	111.9437942504883	285.3472290039062	48.89162063598635	69.99137878417966	86.85398101806641	142.148193359375	290.4757995605469	83.63732147216798	125.377296447754	243.3240966796875	52.59594726562501	34.45389938354496	-132.850311279297	691.6832885742188	414.1370849609375	-84.96384429931652	628.463623046875	418.2713623046875	-132.350311279297	631.8607177734375	402.310791015625	-204.2651519775391	344.4478759765625	386.4899902343749	-180.282943725586	269.0361938476562	382.3941345214843	-225.6454467773438	287.8008422851562	371.9087829589843	-285.9005432128907	76.99453735351561	259.1699829101562	-78.17303466796881	43.59266281127929	273.6160278320312	-130.0560607910157	39.34572219848632	374.5434265136719	58.34033584594714	1330.182495117188	232.9211578369141	70.85675048828114	1185.934814453125	236.9009246826172	-37.47805404663096	1394.760498046875	58.99965286254882	-67.6669540405274	1240.6328125	-40.68037033081056	-89.95855712890631	1180.515502929688	-57.30274200439455	-41.33332061767585	1180.44091796875	-41.8501205444336	-83.85803985595707	979.6425170898438	-89.29409027099611	-126.1752395629883	916.2811889648438	-67.96865844726565	-82.62363433837895	918.0647583007812	-92.44554138183595	-71.87853240966801	814.8538208007812	-102.1743621826172	-18.56807327270512	809.283447265625	-44.62541580200195	-23.44620704650895	1393.226196289062	400.4038391113281	-26.42481994628923	1253.256469726562	509.8073425292969	5.093839168548416	1195.581665039062	519.3986206054688	-43.44051742553728	1195.43359375	536.814697265625	53.1869926452635	988.490478515625	566.6288452148438	129.8266448974608	966.680419921875	572.8480834960938	90.434730529785	939.0801391601562	559.4580078125	162.0765228271483	882.9030151367188	551.809326171875	190.026168823242	894.7742309570312	475.9956359863282	
94	0.465	126.4571990966795	1592.656616210938	236.7273101806641	76.584144592285	1620.353149414062	300.5614013671875	83.32714080810534	1613.676513671875	162.7610931396485	-102.1117019653322	1434.86181640625	232.94287109375	-164.1758728027345	1267.204711914062	232.0308685302734	-172.5091552734376	1226.500732421875	211.4229888916015	-178.942581176758	1220.344604492188	261.5457458496093	-169.9772491455079	1162.903686523438	228.6725158691406	-147.3878326416016	1096.111328125	230.274185180664	-182.8910217285157	1060.89599609375	210.2364501953125	-186.262176513672	1060.117065429688	261.4144897460937	-189.0572509765626	998.9933471679688	232.2092590332031	-168.9342651367188	948.3992309570312	205.1116638183593	-172.9684295654298	947.7940673828125	257.0404663085937	-185.8105926513673	888.55615234375	228.958755493164	36.11796569824214	671.5421752929688	38.8165512084961	18.78313255310054	599.0151977539062	62.82753753662109	63.12054443359371	616.823974609375	49.25317001342775	115.2908477783203	343.5537719726562	41.14861297607424	76.49777221679685	277.0859680175781	60.33423233032228	124.7822799682617	282.8099060058594	48.65496063232424	89.4138259887695	82.46739959716797	140.5972442626953	309.9724731445312	86.45442962646486	123.8057708740235	263.8265991210938	54.43625259399415	32.72041702270513	-128.5238189697267	691.6321411132812	414.0974731445312	-81.1881561279298	628.0007934570312	418.3223571777344	-128.5022430419923	631.7965698242188	402.2268371582031	-202.5586090087891	344.8350219726562	386.3002319335937	-179.0433044433595	269.2772521972656	382.2505187988281	-224.2815399169923	288.3228759765625	371.7425231933593	-285.6613159179688	77.61943054199217	258.9981689453124	-78.10520935058599	43.59232330322265	273.5696411132812	-129.9639282226563	39.35240936279296	374.4787902832031	64.91891479492175	1328.9052734375	232.4347686767578	77.33233642578114	1184.643798828125	236.5951385498047	-30.84279441833506	1393.481567382812	58.39344787597656	-61.84320068359382	1239.386596679688	-41.20139312744142	-84.42936706542974	1179.326782226562	-57.67721176147462	-35.73840713500983	1179.093383789062	-42.42992401123048	-79.48419952392582	978.5474243164062	-89.67813110351564	-122.1095123291016	915.4689331054688	-68.12248229980472	-78.69606781005864	916.9781494140625	-92.88243103027345	-68.70620727539067	813.6853637695312	-102.6895065307617	-15.06198406219487	807.7550048828125	-45.54179382324219	-16.92556762695328	1392.168579101562	399.8427124023438	-19.66545104980486	1252.39599609375	509.3314514160156	12.15564060211165	1194.925048828125	519.1190795898438	-36.42189025878923	1194.5634765625	536.4478759765625	61.87496185302717	988.3527221679688	566.2675170898438	138.7657623291014	967.3865966796875	572.0775146484375	99.6167373657225	939.4124145507812	558.8363647460938	171.8184356689451	883.9562377929688	550.7957153320312	199.359405517578	896.3540649414062	474.9078674316407	
95	0.47	133.0594635009764	1591.611938476562	235.7660827636719	83.19802856445297	1619.376586914062	299.5675354003906	89.88673400878893	1612.45849609375	161.7732086181641	-95.40164184570325	1433.768432617188	232.2880706787109	-157.5471649169923	1266.198364257812	231.3246917724609	-165.8661346435548	1225.481323242188	210.6961059570312	-172.5016937255861	1219.364013671875	260.8361816406249	-163.464569091797	1161.895751953125	227.9592590332031	-140.9766998291016	1095.04052734375	229.5869750976562	-176.3546142578126	1059.7890625	209.5795745849609	-179.8810119628907	1059.128662109375	260.7872314453124	-182.665740966797	997.9345703125	231.6506195068359	-162.4726867675782	947.4243774414062	204.5737915039062	-166.6774902343751	947.0630493164062	256.5137634277343	-179.7573394775391	887.7755737304688	228.5972595214843	41.07304382324214	669.1152954101562	40.1692237854004	23.83711051940913	597.051025390625	65.4923095703125	67.9989395141601	614.447265625	50.83622360229494	126.1112060546875	340.9124755859375	41.27836990356447	89.47203063964841	273.0690307617188	59.93908309936525	137.5379638671875	280.4485473632812	48.38220596313479	108.6603927612304	78.49586486816406	139.0438995361328	329.0614624023438	89.5130081176758	122.3061065673829	283.9496154785156	56.5835647583008	31.04818916320806	-124.1842651367189	691.584228515625	414.0190734863281	-77.39996337890636	627.54833984375	418.385498046875	-124.6240234375001	631.7330322265625	402.1156005859375	-200.7958221435548	345.2411499023438	386.1160278320312	-177.7630004882813	269.5365295410156	382.1237792968749	-222.8664550781251	288.8702087402344	371.5791625976562	-285.4134521484376	78.29355621337889	258.8394470214843	-78.03652954101568	43.59789657592773	273.5200500488281	-129.8695220947266	39.36002731323241	374.4181518554688	71.51567840576159	1327.595092773438	231.9257049560547	83.82493591308582	1183.32177734375	236.2654571533203	-24.16779327392588	1392.170776367188	57.75855255126952	-55.9498367309571	1238.111328125	-41.74994659423829	-78.82744598388678	1178.112426757812	-58.08572387695314	-30.07587242126471	1177.715454101562	-43.02997207641602	-75.02346801757817	977.4255981445312	-90.08663940429689	-117.9477844238282	914.6254272460938	-68.30497741699222	-74.67307281494145	915.86669921875	-93.34030151367189	-65.42006683349614	812.5000610351562	-103.2171249389649	-11.45741748809819	806.2161254882812	-46.46126937866211	-10.39046955108658	1391.073608398438	399.2533569335938	-12.90629386901873	1251.487426757812	508.8105773925781	19.21001625061018	1194.217407226562	518.7929077148438	-29.41140556335467	1193.643432617188	536.0248413085938	70.50984954833969	988.16162109375	565.8558959960938	147.6355895996092	968.0244140625	571.2828369140625	108.7313308715819	939.6878662109375	558.1736450195312	181.4737548828123	884.94580078125	549.7677612304688	208.6126098632811	897.8466796875	473.8055114746094	
96	0.475	139.6782073974608	1590.53857421875	234.7874450683594	89.82360839843734	1618.370971679688	298.5563659667969	96.46425628662097	1611.212768554688	160.7673645019532	-88.67492675781263	1432.648681640625	231.6001586914062	-150.9050598144532	1265.167236328125	230.5848388671875	-159.2092437744142	1224.435913085938	209.9380950927734	-166.0447387695314	1218.35693359375	260.0913085937499	-156.9268951416017	1160.857421875	227.2133636474609	-134.5317535400391	1093.936157226562	228.8738555908203	-169.8090820312501	1058.629638671875	208.9300842285156	-173.4749145507814	1058.084350585938	260.1625366210937	-176.252426147461	996.8235473632812	231.1011047363281	-155.973617553711	946.4195556640625	204.0155029296875	-160.3549346923829	946.3038940429688	255.9617767333984	-173.6810913085938	886.971923828125	228.2118530273437	45.8756713867187	666.629150390625	41.49514389038087	28.72295761108393	595.04931640625	68.1514892578125	72.69966125488276	612.00390625	52.39474105834962	136.8722991943359	338.4002685546875	41.35223770141604	102.3712463378906	269.2727661132812	59.44900131225588	150.1892395019531	278.2709350585938	48.07691955566409	127.6791076660156	74.93648529052736	137.5013275146485	347.7084045410156	92.78823852539064	120.8982772827149	303.6584777832031	59.00313949584963	29.45889663696295	-119.8275070190431	691.54248046875	413.8988647460938	-73.59460449218761	627.1102905273438	418.4608764648438	-120.7104263305665	631.672119140625	401.9765319824219	-198.9678039550782	345.6683654785156	385.9399108886718	-176.4335937500001	269.8158264160156	382.0145263671874	-221.3922119140626	289.4450073242188	371.4207763671874	-285.1546020507813	79.0233688354492	258.6962890624999	-77.96696472167974	43.60915756225585	273.4656066894531	-129.7722930908204	39.36899948120116	374.3624267578125	78.13139343261706	1326.257080078125	231.3934631347657	90.33502197265614	1181.974243164062	235.9120483398438	-17.45302963256846	1390.831909179688	57.09456634521484	-49.98469543457038	1236.809814453125	-42.32621002197266	-73.14927673339849	1176.875244140625	-58.52916717529298	-24.34284782409674	1176.310913085938	-43.64998626708985	-70.47169494628911	976.2798461914062	-90.52008056640626	-113.68701171875	913.75341796875	-68.51753997802736	-70.5508193969727	914.7330932617188	-93.81931304931642	-62.01688003540042	811.2999877929688	-103.758056640625	-7.7514595985413	804.6678466796875	-47.3825798034668	-3.839425325393835	1389.9462890625	398.634765625	-6.143614768982103	1250.536376953125	508.2442932128906	26.2586593627928	1193.462280273438	518.41796875	-22.40736579895037	1192.6787109375	535.5452270507812	79.08855438232406	987.91845703125	565.393798828125	156.4333648681639	968.5924682617188	570.4647216796875	117.7752532958983	939.9041748046875	557.470947265625	191.037399291992	885.8685913085938	548.7261352539062	217.7850341796874	899.2501831054688	472.6908264160157	
